<svg width="100.000000" height="100.000000" viewBox="0 0 100 100" fill="none" xmlns="http://www.w3.org/2000/svg" xmlns:xlink="http://www.w3.org/1999/xlink">
	<desc>
			Created with Pixso.
	</desc>
	<defs>
		<clipPath id="clip12_42">
			<rect rx="0.000000" width="99.000000" height="99.000000" transform="translate(0.500000 0.500000)" fill="white" fill-opacity="0"/>
		</clipPath>
	</defs>
	<rect rx="0.000000" width="99.000000" height="99.000000" transform="translate(0.500000 0.500000)" fill="#FFFFFF" fill-opacity="0"/>
	<g clip-path="url(#clip12_42)">
		<path d="M0 48.24C0 56.09 0.59 61.19 3.4 68.27C3.99 69.77 4.85 71.43 7.21 70.9C8.96 70.5 9.84 68.81 9.25 66.92L7.53 61.8C3.46 47.5 7.12 32.9 15.68 22.32C16.34 21.52 16.78 21.09 17.42 20.36L23.4 14.81L27.99 11.78C32.41 9.39 33.72 8.85 38.64 7.39C41.86 6.44 48.15 5.58 52.17 6.02C58.02 6.66 58.73 6.35 64.76 8.47C66.82 9.19 68.34 9.85 70.12 10.74C71.06 11.2 74.32 13.01 74.8 13.67C71.87 13.67 68.5 13.2 67.18 14.83C65.66 16.7 66.86 19.72 69.53 19.72L83.2 19.72C85.2 19.72 86.32 18.23 86.32 16.21L86.32 3.51C86.32 2.47 86.12 1.69 85.6 1.11C85.04 0.47 84.33 0.1 83.62 0L82.78 0C81.44 0.19 80.27 1.38 80.26 3.5C80.25 5.71 80.27 7.93 80.27 10.15C75.55 7 74.38 5.69 67.88 3.2C62.89 1.29 57.69 0.24 52.49 0L47.77 0C35.5 0.57 23.58 5.61 14.69 14.5C8.35 20.84 3.71 28.83 1.47 37.61C0.71 40.61 0 44.64 0 48.24Z" fill="#F58634" fill-opacity="1.000000" fill-rule="evenodd"/>
		<path d="M94.14 50C94.14 54.49 93.27 59.56 92.11 63.01L90.06 68.38C89.32 70.19 88.36 71.68 87.38 73.32C86.83 74.25 86.46 74.71 85.9 75.54C83.56 78.98 79.86 82.62 76.56 85.16C69.18 90.83 60.81 93.62 51.36 93.94C50.44 93.97 50.4 94.15 49.66 94.08C43.03 93.53 41.72 93.73 35.22 91.53C32.4 90.57 30.04 89.41 27.52 87.9C26.45 87.25 26.18 87.18 25.19 86.32C28.12 86.32 31.49 86.79 32.82 85.16C34.34 83.29 33.13 80.27 30.46 80.27L16.79 80.27C14.8 80.27 13.67 81.76 13.67 83.78L13.67 96.48C13.67 98.6 14.94 99.8 16.32 100L17.16 100C18.5 99.8 19.72 98.65 19.73 96.49C19.74 94.28 19.72 92.06 19.72 89.84C24.1 92.77 26.7 94.8 32.3 96.8C37.69 98.72 43.17 99.81 48.64 100L52.09 100C58.51 99.77 64.87 98.29 71.02 95.44C73.31 94.38 76.61 92.51 78.68 90.98C83.79 87.2 87.1 84.18 90.82 78.9C92.53 76.48 93.94 74.07 95.31 71.29C97.54 66.76 100 58.5 100 51.75C100 46.01 99.87 42.15 98.26 36.69C97.8 35.14 96.59 30.57 95.35 29.64C93 27.89 89.72 29.97 90.74 33.08C92.72 39.15 94.14 42.32 94.14 50Z" fill="#F58634" fill-opacity="1.000000" fill-rule="evenodd"/>
		<path d="M46.48 33.98L46.48 42.57L41.6 42.57C41.8 41.68 42.28 41.13 42.7 40.36C43.12 39.59 43.46 38.97 43.9 38.24C44.42 37.37 46.02 34.31 46.48 33.98ZM34.76 44.91C34.76 46.21 35.67 47.46 36.91 47.46L46.48 47.46C46.48 49.95 46.08 52.45 47.2 53.58C49.24 55.63 51.36 53.63 51.36 52.14L51.36 47.46C52.86 47.46 54.49 47.02 54.49 45.11C54.49 43.38 53.25 42.57 51.56 42.57L51.56 31.83C51.56 25.34 46.66 23.76 43.29 29.42C42.25 31.17 41.39 32.72 40.34 34.48C39.53 35.85 34.76 43.97 34.76 44.91Z" fill="#F58634" fill-opacity="1.000000" fill-rule="evenodd"/>
		<path d="M16.99 33.2C16.99 35.75 20.12 36.53 21.41 34.89C21.85 34.34 21.91 33.83 22.2 33.14C23.75 29.38 28.71 31.24 28.71 34.18C28.71 36.48 24.67 41.44 23.47 43.2C20.46 47.61 15.55 51.7 19.08 53.96C20.45 54.84 28.86 54.49 31.05 54.49C35.4 54.49 35.14 51.04 33.54 49.85C32.49 49.06 26.7 49.41 25.19 49.41C25.54 48.74 25.84 48.41 26.31 47.79C26.78 47.17 27.11 46.69 27.54 46.09C29.31 43.58 33.59 38.18 33.59 35.15C33.59 32.41 33.26 30.25 31.05 28.32C30.35 27.7 29.62 27.16 28.71 26.75C25.54 25.34 21.94 26 19.77 28.16C18.58 29.35 16.99 31.41 16.99 33.2Z" fill="#F58634" fill-opacity="1.000000" fill-rule="evenodd"/>
		<path d="M68.55 48.04C68.55 48.98 69.32 49.83 69.91 50.2C71.1 50.94 78.37 50.58 80.08 50.58L74.81 62.7C74.37 63.7 73.99 64.66 73.5 65.69C72.94 66.86 71.01 70.86 71.22 71.92C71.64 73.96 74.8 75.35 76.22 71.93L80.69 61.74C81.15 60.62 81.65 59.54 82.17 58.34L83.66 54.94C84.12 53.96 86.52 48.8 86.52 48.04C86.52 46.59 85.3 45.5 83.78 45.5L71.09 45.5C69.85 45.5 68.55 46.77 68.55 48.04Z" fill="#F58634" fill-opacity="1.000000" fill-rule="evenodd"/>
		<path d="M50.39 67.58C50.39 69.04 53.57 72.76 55.8 67.13C57.2 63.59 67.77 37.34 67.77 36.72C67.77 35.24 67.16 33.78 65.42 33.78C62.87 33.78 62.1 37.8 60.74 41.21C59.56 44.14 58.4 47.07 57.22 50C56.46 51.9 50.39 66.91 50.39 67.58Z" fill="#F58634" fill-opacity="1.000000" fill-rule="evenodd"/>
	</g>
</svg>
