<svg width="93.617188" height="100.000000" viewBox="0 0 93.6172 100" fill="none" xmlns="http://www.w3.org/2000/svg" xmlns:xlink="http://www.w3.org/1999/xlink">
	<desc>
			Created with Pixso.
	</desc>
	<defs/>
	<path id="Vector" d="M44.18 6.96C35.66 6.96 25.66 10.82 19.65 15.37C18.59 16.17 17.51 16.86 16.57 17.72L10.94 23.33C5.04 29.6 0 41.88 0 51.14C0 62.6 1.22 67.54 6.33 76.98C8.21 80.46 11.09 83.73 13.85 86.5C38.13 110.92 79.91 100.45 90.83 69.12C96.03 54.2 93.87 39.07 84.87 26.33L80.72 21.18C77.31 17.54 73.05 20.65 77.61 25.07C84.04 31.32 88.75 43.34 88.75 53.46C88.75 62.16 85.99 70.02 81.62 76.57C79.18 80.24 78.76 80 77.13 82.15C75.13 84.78 68.59 89.12 65.49 90.67C51.06 97.88 34.88 96.05 21.69 86.8C15.87 82.72 11.29 76.52 8.26 70C1.27 55.02 5.07 36.23 16.17 24.68L21.53 19.96C27.59 15.38 35.56 12.29 43.79 11.61C42.83 13.04 40.16 14.03 40.06 15.88C40 16.98 41.25 19.68 44.34 17.61C45.95 16.53 47.38 15.06 48.83 13.93C52.52 11.06 53.09 10.98 53.09 8.51C53.09 7.16 47.1 2.97 45.82 1.83C41.05 -2.42 39.34 1.81 40.53 3.59C41.45 4.96 43.28 5.73 44.18 6.96Z" fill="#FC8803" fill-opacity="1.000000" fill-rule="evenodd"/>
	<path id="Vector" d="M28.29 39.9C32.74 39.9 40.88 46.88 44.18 46.88C53.31 46.88 50.95 47.64 58.78 43.26C60.14 42.5 61.24 42.04 62.65 41.32C64.24 40.52 64.79 39.9 67.04 39.9C67 41.69 66.9 41.62 65.68 42.42C63.76 43.68 54.03 48.12 53.18 49.29C51.97 50.95 50.75 73.18 50.15 77.27C49.43 82.21 51.07 83.31 46.89 83.31C44.9 83.31 45.5 79.23 45.28 77.16C44.89 73.51 43.21 50.51 42.21 49.23C41.57 48.41 33.06 44.25 32.16 43.78C28.65 41.96 28.34 41.96 28.29 39.9ZM23.25 40.68C23.25 46.16 31.97 48.7 36.72 51.62C38.03 52.42 37.23 51.35 37.91 52.76C38.39 53.76 38.65 59.44 38.78 61.19C39.03 64.44 40.35 82.98 41.75 85.35C42.4 86.45 42.99 87.11 44.16 87.6C46.06 88.38 51.57 88.76 53.49 85.64C55.76 81.93 56.2 57.63 57.27 53.38C57.71 51.65 59.45 51.04 62.65 49.46C66.04 47.78 76.59 43.03 70.27 36.68C69.64 36.04 69.56 35.89 68.71 35.52C62.66 32.84 54.78 41.84 50.38 41.84C41.51 41.84 45.49 42.3 37.33 38.22C33.37 36.24 29.07 32.9 25.25 36.48C24.64 37.06 24.29 37.36 23.9 38.23C23.76 38.54 23.25 40.46 23.25 40.68Z" fill="#FC8803" fill-opacity="1.000000" fill-rule="evenodd"/>
	<path id="Vector" d="M51.15 32.15C51.15 33.88 49.58 35.64 48.05 35.64C44.71 35.64 43.29 32.14 45.14 30.02C47 27.91 51.15 28.85 51.15 32.15ZM39.53 31.76C39.53 43.42 56.08 42.82 56 32.14C55.93 21.2 39.53 21.63 39.53 31.76Z" fill="#FC8803" fill-opacity="1.000000" fill-rule="evenodd"/>
</svg>
