<svg width="100.000000" height="100.000000" viewBox="0 0 100 100" fill="none" xmlns="http://www.w3.org/2000/svg" xmlns:xlink="http://www.w3.org/1999/xlink">
	<desc>
			Created with Pixso.
	</desc>
	<defs>
		<clipPath id="clip12_52">
			<rect id="quick_ico 1" rx="0.000000" width="99.000000" height="99.000000" transform="translate(0.500000 0.500000)" fill="white" fill-opacity="0"/>
		</clipPath>
	</defs>
	<rect id="quick_ico 1" rx="0.000000" width="99.000000" height="99.000000" transform="translate(0.500000 0.500000)" fill="#FFFFFF" fill-opacity="0"/>
	<g clip-path="url(#clip12_52)">
		<path id="Vector" d="M32.68 57C33.77 56.48 39.2 56.23 38.09 58.57C37.7 59.4 32.98 61.5 32.68 57ZM6.94 65.36C4.8 66.09 5.31 67.64 7.38 68.07C8.35 68.27 12.19 68.11 13.44 68.11C18.74 68.1 22.69 67.19 24.25 69.42C23.47 71.15 23.85 70.92 21.26 71.01C17.23 71.15 11.63 69.88 9.95 72.2C10.97 74.98 11.14 73.45 17.19 73.92C15.69 77.38 9.72 82.5 10.77 86.53C14.76 88.24 17.68 83.78 20.06 81.6C21.58 80.19 22.87 79.52 24.28 78.03L36.15 67.17C37.62 65.66 38.86 65 40.39 63.62C41.72 62.43 44.92 56.53 50.7 65.54C49.28 70.02 38.71 77.32 43.06 78.76C43.16 78.79 43.74 80.76 52.1 74.79C64.12 66.23 69.1 64.69 61.98 56.95C60.49 55.34 60.26 54.8 58.93 53.34C55.97 50.05 49.41 40.15 41.78 43.39C37 45.42 38.24 48.14 32.9 48.15C29.58 48.16 21.95 47.2 19.54 48.9C19.48 51.89 21.88 51.02 25.08 50.98C29.54 50.92 44.94 50.33 47.22 51.59C46.91 54.22 46.42 53.88 43.45 53.87C36.06 53.86 4.33 52.98 2 54.6C2.23 57.52 4.17 56.76 7.33 56.72C12.21 56.66 27.31 56.38 30.27 56.99C29.82 63.64 17.1 55.76 16.37 61.61C20.37 64.43 30.07 59.63 30.52 64.43C27.52 66.64 10.9 64 6.94 65.36Z" fill="#F58634" fill-opacity="1.000000" fill-rule="evenodd"/>
		<path id="Vector" d="M19.12 41.67C22.04 43.74 28.29 41.42 32.37 40.62C36.19 39.88 43.45 38.42 47.3 38.78C52.04 39.22 55.31 43.03 57.55 45.29C67.03 54.88 66.01 58.34 75.9 48.67C78.9 45.74 81.26 43.28 84.15 40.27C85.12 39.26 87.88 36.99 85.7 35.43C83.73 34.02 81.35 36.04 79.64 36.88C77.1 38.14 70.69 41.49 68.24 41.81C67.1 38.22 63.96 31.03 61.09 29C54.15 24.08 31.56 33.54 23.53 36.79C20.84 37.88 18.67 38.08 19.12 41.67Z" fill="#F58634" fill-opacity="1.000000" fill-rule="evenodd"/>
		<path id="Vector" d="M94.43 33.88C95.5 32.04 98.7 20 97.86 18.81C97.06 17.69 84.39 15.15 82.85 15.17C81.98 17.35 79.28 28.04 79.39 30.67C82.79 31.44 91.36 33.98 94.43 33.88Z" fill="#F58634" fill-opacity="1.000000" fill-rule="evenodd"/>
		<path id="Vector" d="M61.36 21.72C63.05 29.9 77.17 28.29 75.4 18.56C73.84 10.01 59.3 11.77 61.36 21.72Z" fill="#F58634" fill-opacity="1.000000" fill-rule="evenodd"/>
		<path id="Vector" d="M8.4 50.54C8.72 50.85 16.79 52.28 15.09 49.08C14.39 48.37 15.8 48.42 12.93 48.05C10.64 47.76 6.27 48.5 8.4 50.54Z" fill="#F58634" fill-opacity="1.000000" fill-rule="evenodd"/>
		<path id="Vector" d="M32.68 57C32.98 61.5 37.7 59.4 38.09 58.57C39.2 56.23 33.77 56.48 32.68 57Z" fill="#F58634" fill-opacity="1.000000" fill-rule="evenodd"/>
	</g>
</svg>
