<svg width="87.041748" height="100.000000" viewBox="0 0 87.0417 100" fill="none" xmlns="http://www.w3.org/2000/svg" xmlns:xlink="http://www.w3.org/1999/xlink">
	<desc>
			Created with Pixso.
	</desc>
	<defs/>
	<path id="Vector" d="M40.07 20.65C54.92 18.21 67.64 29.84 69.43 42.67C71.61 58.23 60.36 70.59 47.35 72.43C31.9 74.62 19.19 63.24 17.54 50.27C15.48 34.1 26.56 22.86 40.07 20.65ZM0.33 50.29C1.68 64.45 8.1 75.87 15.6 82.32C18.58 84.87 39.88 101.4 45.1 99.9C47.03 99.34 57.79 92.41 59.98 90.97C89.42 71.55 86.75 55.71 86.75 23.14C86.75 11.92 88.68 3.29 82.51 3.53C79.38 3.65 75.63 4.8 71.85 4.96C68.02 5.12 64 5.02 60.41 4.48C56.1 3.82 44.07 -0.44 42.21 0.03C39.58 0.7 36.52 2.23 33.46 3.06C26.52 4.94 18.9 5.52 11.64 4.72C8.87 4.4 3.83 2.52 1.56 4.19C-0.88 6 0.26 22.72 0.26 26.68C0.26 33.73 -0.31 43.58 0.33 50.29Z" fill="#FC8803" fill-opacity="1.000000" fill-rule="evenodd"/>
	<path id="Vector" d="M31.5 63.28C31.06 61.36 33.73 59.36 34.97 58.28C38.49 55.2 48.54 56.22 49.99 56.83C54.07 58.54 61.16 66.37 45.28 67.47C41.26 67.75 32.14 66.1 31.5 63.28ZM60.62 57.63C58.19 57.36 54.44 54.31 54.01 52.6C52.96 48.52 54.66 45.96 58.26 45.76C62.36 45.54 65.14 45.14 64.35 49.85C63.86 52.83 63.11 55.93 60.62 57.63ZM23.82 46.39C28.23 43.06 38.96 48.69 30.14 55.83C27.42 58.03 25.71 58.8 23.97 54.48C21.84 49.18 21.85 47.88 23.82 46.39ZM24.35 39.37C24.08 35.36 28.95 31.09 31.05 29.57C38.69 24.04 48.94 24.2 56.25 29.86C58.21 31.38 63.39 35.72 62.19 40.06C59.15 41.3 47.34 40.68 42.91 40.68C37.61 40.68 27.6 42.1 24.35 39.37ZM40.07 20.65C26.56 22.86 15.48 34.1 17.54 50.27C19.19 63.24 31.9 74.62 47.35 72.43C60.36 70.59 71.61 58.23 69.43 42.67C67.64 29.84 54.92 18.21 40.07 20.65Z" fill="#FCFFFC" fill-opacity="1.000000" fill-rule="evenodd"/>
	<path id="Vector" d="M24.35 39.37C27.6 42.1 37.61 40.68 42.91 40.68C47.34 40.68 59.15 41.3 62.19 40.06C63.39 35.72 58.21 31.38 56.25 29.86C48.94 24.2 38.69 24.04 31.05 29.57C28.95 31.09 24.08 35.36 24.35 39.37Z" fill="#FC8803" fill-opacity="1.000000" fill-rule="evenodd"/>
	<path id="Vector" d="M31.5 63.28C32.14 66.1 41.26 67.75 45.28 67.47C61.16 66.37 54.07 58.54 49.99 56.83C48.54 56.22 38.49 55.2 34.97 58.28C33.73 59.36 31.06 61.36 31.5 63.28Z" fill="#FC8803" fill-opacity="1.000000" fill-rule="evenodd"/>
	<path id="Vector" d="M23.82 46.39C21.85 47.88 21.84 49.18 23.97 54.48C25.71 58.8 27.42 58.03 30.14 55.83C38.96 48.69 28.23 43.06 23.82 46.39Z" fill="#FC8803" fill-opacity="1.000000" fill-rule="evenodd"/>
	<path id="Vector" d="M60.62 57.63C63.11 55.93 63.86 52.83 64.35 49.85C65.14 45.14 62.36 45.54 58.26 45.76C54.66 45.96 52.96 48.52 54.01 52.6C54.44 54.31 58.19 57.36 60.62 57.63Z" fill="#FC8803" fill-opacity="1.000000" fill-rule="evenodd"/>
</svg>
